<?xml version="1.0" encoding="UTF-8"?>
<svg width="96px" height="96px" viewBox="0 0 96 96" version="1.1" xmlns="http://www.w3.org/2000/svg" xmlns:xlink="http://www.w3.org/1999/xlink">
    <!-- Generator: Sketch 55.1 (78136) - https://sketchapp.com -->
    <title>HPI-Schul-Cloud-Wort-Bildmarke_transparent_96x96</title>
    <desc>Created with Sketch.</desc>
    <defs>
        <path d="M51.159,0 C50.945,0.002 50.731,0.006 50.517,0.014 L50.517,0.014 C41.922,0.314 33.427,5.305 32.127,13.391 L32.127,13.391 C23.832,10.097 16.036,14.49 16.036,21.977 L16.036,21.977 C0.745,18.981 -3.352,32.558 2.643,37.051 L2.643,37.051 C6.841,40.644 12.238,39.945 19.135,39.945 L19.135,39.945 L58.912,39.945 L64.608,39.945 C73.103,39.945 80,34.255 80,27.167 L80,27.167 C80,23.651 78.226,20.361 75.253,18.018 L75.253,18.018 L66.294,26.966 C66.082,27.179 65.587,27.531 65.232,27.6 L65.232,27.6 L55.172,31.67 C54.929,31.79 54.686,31.822 54.449,31.815 L54.449,31.815 C53.202,32.913 50.514,33.995 49.814,34.099 L49.814,34.099 C47.149,34.494 45.497,32.788 43.746,30.978 L43.746,30.978 C42.621,29.816 41.456,28.613 40.003,28.034 L40.003,28.034 C39.551,27.854 39.118,27.773 38.698,27.773 L38.698,27.773 C36.795,27.773 35.195,29.421 33.753,30.905 L33.753,30.905 C33.203,31.471 32.684,32.004 32.182,32.412 L32.182,32.412 C30.661,33.65 29.151,34.218 27.719,34.119 L27.719,34.119 C26.054,33.999 24.84,32.861 23.831,31.805 L23.831,31.805 L23.648,31.611 C22.549,30.452 21.306,29.139 19.53,29.803 L19.53,29.803 C18.635,30.14 17.842,30.799 17.335,31.293 L17.335,31.293 C17.195,31.429 17.065,31.575 16.933,31.723 L16.933,31.723 C16.611,32.083 16.306,32.423 15.879,32.615 L15.879,32.615 C15.55,32.761 15.144,32.75 14.85,32.583 L14.85,32.583 C14.681,32.488 14.471,32.3 14.429,31.944 L14.429,31.944 C14.363,31.393 14.818,31.025 15.255,30.669 L15.255,30.669 C15.328,30.61 15.398,30.553 15.465,30.495 L15.465,30.495 L15.827,30.183 C16.872,29.278 17.953,28.342 19.317,27.955 L19.317,27.955 C21.188,27.43 22.797,28.376 23.818,29.266 L23.818,29.266 C24.146,29.551 24.467,29.893 24.806,30.257 L24.806,30.257 C25.703,31.219 26.632,32.212 27.904,32.363 L27.904,32.363 C29.803,32.589 31.432,30.916 32.509,29.811 L32.509,29.811 L32.627,29.689 C33.898,28.385 35.097,27.152 36.815,26.475 L36.815,26.475 C38.434,25.838 40.177,26.041 41.85,27.065 L41.85,27.065 C42.872,27.693 43.704,28.568 44.509,29.414 L44.509,29.414 C45.023,29.956 45.555,30.517 46.138,31.014 L46.138,31.014 C47.84,32.465 49.445,32.708 51.189,31.779 L51.189,31.779 C51.416,31.658 51.696,31.445 52.023,31.198 L52.023,31.198 C52.313,30.979 52.637,30.737 52.966,30.528 L52.966,30.528 C52.917,30.234 52.951,29.918 53.105,29.605 L53.105,29.605 L57.18,19.557 C57.249,19.202 57.602,18.708 57.813,18.496 L57.813,18.496 L67.594,8.727 C64.13,2.7 57.841,0.048 51.503,0 L51.503,0 L51.159,0 Z M60.5,19.344 C59.935,19.908 59.156,20.12 58.521,20.049 L58.521,20.049 L56.685,25.274 L59.51,28.096 L64.74,26.261 C64.668,25.625 64.881,24.848 65.445,24.284 L65.445,24.284 L73.126,16.613 C72.536,16.292 71.911,16.01 71.262,15.757 L71.262,15.757 L64.085,22.925 C63.577,23.432 62.986,23.772 62.418,23.883 L62.418,23.883 C61.924,23.978 61.517,23.888 61.258,23.632 L61.258,23.632 C60.674,23.048 60.991,21.78 61.965,20.807 L61.965,20.807 L69.478,13.302 C69.271,12.532 69.024,11.803 68.748,11.105 L68.748,11.105 L60.5,19.344 Z" id="path-1"></path>
        <linearGradient x1="4.98680667%" y1="61.2532694%" x2="95.0769146%" y2="38.7305397%" id="linearGradient-3">
            <stop stop-color="#B1063A" offset="0%"></stop>
            <stop stop-color="#F6A800" offset="100%"></stop>
        </linearGradient>
        <linearGradient x1="4.98680667%" y1="51.0097527%" x2="95.0769146%" y2="48.9887945%" id="linearGradient-4">
            <stop stop-color="#B1063A" offset="0%"></stop>
            <stop stop-color="#F6A800" offset="100%"></stop>
        </linearGradient>
    </defs>
    <g id="HPI-Schul-Cloud-Wort-Bildmarke_transparent_96x96" stroke="none" stroke-width="1" fill="none" fill-rule="evenodd">
        <g id="Logo" transform="translate(8.000000, 19.000000)">
            <path d="M50.5168,0.0144 C41.9208,0.3134 33.4258,5.3054 32.1268,13.3914 C23.8308,10.0974 16.0368,14.4894 16.0368,21.9764 C0.7448,18.9814 -3.3532,32.5574 2.6438,37.0504 C6.8408,40.6434 12.2388,39.9454 19.1338,39.9454 L58.9128,39.9454 L64.6088,39.9454 C73.1038,39.9454 79.9998,34.2554 79.9998,27.1674 C79.9998,21.8764 76.0018,17.0844 69.9058,15.2874 L69.9058,15.1884 C67.9068,4.1074 59.1118,-0.2856 50.5168,0.0144" id="BG-Cloud" fill="#FFFFFF"></path>
            <g id="Bildmarke">
                <mask id="mask-2" fill="white">
                    <use xlink:href="#path-1"></use>
                </mask>
                <g id="Clip-2"></g>
                <path d="M51.159,0 C50.945,0.002 50.731,0.006 50.517,0.014 L50.517,0.014 C41.922,0.314 33.427,5.305 32.127,13.391 L32.127,13.391 C23.832,10.097 16.036,14.49 16.036,21.977 L16.036,21.977 C0.745,18.981 -3.352,32.558 2.643,37.051 L2.643,37.051 C6.841,40.644 12.238,39.945 19.135,39.945 L19.135,39.945 L58.912,39.945 L64.608,39.945 C73.103,39.945 80,34.255 80,27.167 L80,27.167 C80,23.651 78.226,20.361 75.253,18.018 L75.253,18.018 L66.294,26.966 C66.082,27.179 65.587,27.531 65.232,27.6 L65.232,27.6 L55.172,31.67 C54.929,31.79 54.686,31.822 54.449,31.815 L54.449,31.815 C53.202,32.913 50.514,33.995 49.814,34.099 L49.814,34.099 C47.149,34.494 45.497,32.788 43.746,30.978 L43.746,30.978 C42.621,29.816 41.456,28.613 40.003,28.034 L40.003,28.034 C39.551,27.854 39.118,27.773 38.698,27.773 L38.698,27.773 C36.795,27.773 35.195,29.421 33.753,30.905 L33.753,30.905 C33.203,31.471 32.684,32.004 32.182,32.412 L32.182,32.412 C30.661,33.65 29.151,34.218 27.719,34.119 L27.719,34.119 C26.054,33.999 24.84,32.861 23.831,31.805 L23.831,31.805 L23.648,31.611 C22.549,30.452 21.306,29.139 19.53,29.803 L19.53,29.803 C18.635,30.14 17.842,30.799 17.335,31.293 L17.335,31.293 C17.195,31.429 17.065,31.575 16.933,31.723 L16.933,31.723 C16.611,32.083 16.306,32.423 15.879,32.615 L15.879,32.615 C15.55,32.761 15.144,32.75 14.85,32.583 L14.85,32.583 C14.681,32.488 14.471,32.3 14.429,31.944 L14.429,31.944 C14.363,31.393 14.818,31.025 15.255,30.669 L15.255,30.669 C15.328,30.61 15.398,30.553 15.465,30.495 L15.465,30.495 L15.827,30.183 C16.872,29.278 17.953,28.342 19.317,27.955 L19.317,27.955 C21.188,27.43 22.797,28.376 23.818,29.266 L23.818,29.266 C24.146,29.551 24.467,29.893 24.806,30.257 L24.806,30.257 C25.703,31.219 26.632,32.212 27.904,32.363 L27.904,32.363 C29.803,32.589 31.432,30.916 32.509,29.811 L32.509,29.811 L32.627,29.689 C33.898,28.385 35.097,27.152 36.815,26.475 L36.815,26.475 C38.434,25.838 40.177,26.041 41.85,27.065 L41.85,27.065 C42.872,27.693 43.704,28.568 44.509,29.414 L44.509,29.414 C45.023,29.956 45.555,30.517 46.138,31.014 L46.138,31.014 C47.84,32.465 49.445,32.708 51.189,31.779 L51.189,31.779 C51.416,31.658 51.696,31.445 52.023,31.198 L52.023,31.198 C52.313,30.979 52.637,30.737 52.966,30.528 L52.966,30.528 C52.917,30.234 52.951,29.918 53.105,29.605 L53.105,29.605 L57.18,19.557 C57.249,19.202 57.602,18.708 57.813,18.496 L57.813,18.496 L67.594,8.727 C64.13,2.7 57.841,0.048 51.503,0 L51.503,0 L51.159,0 Z M60.5,19.344 C59.935,19.908 59.156,20.12 58.521,20.049 L58.521,20.049 L56.685,25.274 L59.51,28.096 L64.74,26.261 C64.668,25.625 64.881,24.848 65.445,24.284 L65.445,24.284 L73.126,16.613 C72.536,16.292 71.911,16.01 71.262,15.757 L71.262,15.757 L64.085,22.925 C63.577,23.432 62.986,23.772 62.418,23.883 L62.418,23.883 C61.924,23.978 61.517,23.888 61.258,23.632 L61.258,23.632 C60.674,23.048 60.991,21.78 61.965,20.807 L61.965,20.807 L69.478,13.302 C69.271,12.532 69.024,11.803 68.748,11.105 L68.748,11.105 L60.5,19.344 Z" id="Fill-1" fill="url(#linearGradient-3)" mask="url(#mask-2)"></path>
            </g>
        </g>
        <g id="TXT" transform="translate(9.000000, 68.000000)" fill-rule="nonzero">
            <path d="M7.0065,8.36587771 C7.0065,8.48687771 6.9075,8.58587771 6.7865,8.58587771 L5.6975,8.58587771 C5.5765,8.58587771 5.4775,8.48687771 5.4775,8.36587771 L5.4775,4.99987771 L2.3535,4.99987771 L2.3535,8.36587771 C2.3535,8.48687771 2.2545,8.58587771 2.1335,8.58587771 L1.0445,8.58587771 C0.9235,8.58587771 0.8245,8.48687771 0.8245,8.36587771 L0.8245,0.621877708 C0.8245,0.500877708 0.9235,0.412877708 1.0445,0.412877708 L2.1335,0.412877708 C2.2545,0.412877708 2.3535,0.500877708 2.3535,0.621877708 L2.3535,3.65787771 L5.4775,3.65787771 L5.4775,0.621877708 C5.4775,0.500877708 5.5765,0.412877708 5.6975,0.412877708 L6.7865,0.412877708 C6.9075,0.412877708 7.0065,0.500877708 7.0065,0.621877708 L7.0065,8.36587771 Z M14.3465,2.96487771 C14.3465,4.91187771 12.8725,5.53887771 11.1785,5.53887771 C10.8925,5.53887771 10.4525,5.50587771 10.1995,5.49487771 L10.1995,8.36587771 C10.1995,8.48687771 10.1115,8.58587771 9.9905,8.58587771 L8.8905,8.58587771 C8.7695,8.58587771 8.6705,8.48687771 8.6705,8.36587771 L8.6705,0.797877708 C8.6705,0.577877708 8.8025,0.500877708 9.0225,0.467877708 C9.5945,0.379877708 10.3755,0.324877708 11.1785,0.324877708 C12.8725,0.324877708 14.3465,0.918877708 14.3465,2.86587771 L14.3465,2.96487771 Z M12.8285,2.96487771 L12.8285,2.86587771 C12.8285,1.94187771 12.2785,1.58987771 11.1785,1.58987771 C10.9475,1.58987771 10.3975,1.61187771 10.1995,1.63387771 L10.1995,4.25187771 C10.3755,4.26287771 10.9915,4.28487771 11.1785,4.28487771 C12.3665,4.28487771 12.8285,3.84487771 12.8285,2.96487771 Z M17.16,8.36587771 C17.16,8.48687771 17.061,8.58587771 16.94,8.58587771 L15.851,8.58587771 C15.73,8.58587771 15.631,8.48687771 15.631,8.36587771 L15.631,0.621877708 C15.631,0.500877708 15.73,0.412877708 15.851,0.412877708 L16.94,0.412877708 C17.061,0.412877708 17.16,0.500877708 17.16,0.621877708 L17.16,8.36587771 Z" id="HPI" fill="#B1063A"></path>
            <path d="M26.6545,6.46287771 C26.6545,7.51887771 26.1045,8.66287771 23.9375,8.66287771 C23.1675,8.66287771 22.5955,8.58587771 22.1115,8.50887771 C21.9245,8.47587771 21.9025,8.43187771 21.9025,8.31087771 L21.9025,7.87087771 C21.9025,7.74987771 21.9905,7.69487771 22.0895,7.69487771 L22.1225,7.69487771 C22.6285,7.73887771 23.4315,7.76087771 23.9375,7.76087771 C25.2575,7.76087771 25.6095,7.23287771 25.6095,6.46287771 C25.6095,5.91287771 25.2905,5.60487771 24.2895,4.98887771 L23.2225,4.33987771 C22.2105,3.72387771 21.7045,3.16287771 21.7045,2.28287771 C21.7045,0.951877708 22.6615,0.335877708 24.3335,0.335877708 C24.9825,0.335877708 25.8295,0.401877708 26.2475,0.467877708 C26.3575,0.489877708 26.4345,0.544877708 26.4345,0.654877708 L26.4345,1.12787771 C26.4345,1.23787771 26.3575,1.30387771 26.2475,1.30387771 L26.2255,1.30387771 C25.7415,1.27087771 24.9715,1.23787771 24.3335,1.23787771 C23.2005,1.23787771 22.7165,1.47987771 22.7165,2.28287771 C22.7165,2.79987771 23.0795,3.10787771 23.9155,3.61387771 L24.9275,4.21887771 C26.2035,4.97787771 26.6545,5.58287771 26.6545,6.46287771 Z M31.8276,8.29987771 C31.8276,8.44287771 31.7836,8.50887771 31.6076,8.54187771 C31.2446,8.60787771 30.7496,8.66287771 30.2326,8.66287771 C28.7366,8.66287771 27.8896,7.60687771 27.8896,5.98987771 L27.8896,5.13187771 C27.8896,3.51487771 28.7256,2.45887771 30.2326,2.45887771 C30.7386,2.45887771 31.2446,2.51387771 31.6076,2.57987771 C31.7836,2.61287771 31.8276,2.66787771 31.8276,2.82187771 L31.8276,3.21787771 C31.8276,3.32787771 31.7396,3.38287771 31.6406,3.38287771 L31.5966,3.38287771 C31.1126,3.32787771 30.7716,3.30587771 30.2326,3.30587771 C29.3526,3.30587771 28.8576,3.88887771 28.8576,5.13187771 L28.8576,5.98987771 C28.8576,7.22187771 29.3416,7.81587771 30.2326,7.81587771 C30.7716,7.81587771 31.1126,7.79387771 31.5966,7.73887771 L31.6406,7.73887771 C31.7396,7.73887771 31.8276,7.79387771 31.8276,7.90387771 L31.8276,8.29987771 Z M37.7036,8.36587771 C37.7036,8.48687771 37.6046,8.58587771 37.4836,8.58587771 L36.9556,8.58587771 C36.8346,8.58587771 36.7356,8.48687771 36.7356,8.36587771 L36.7356,4.74687771 C36.7356,3.64687771 36.2736,3.30587771 35.5586,3.30587771 C35.2176,3.30587771 34.5246,3.39387771 34.0406,3.61387771 L34.0406,8.36587771 C34.0406,8.47587771 33.9416,8.58587771 33.8206,8.58587771 L33.2816,8.58587771 C33.1716,8.58587771 33.0726,8.48687771 33.0726,8.36587771 L33.0726,0.533877708 C33.0726,0.412877708 33.1606,0.313877708 33.2816,0.313877708 L33.8316,0.313877708 C33.9526,0.313877708 34.0406,0.412877708 34.0406,0.533877708 L34.0406,2.79987771 C34.5686,2.56887771 35.2506,2.45887771 35.7236,2.45887771 C36.8896,2.45887771 37.7036,3.12987771 37.7036,4.74687771 L37.7036,8.36587771 Z M43.8436,8.36587771 C43.8436,8.48687771 43.7556,8.58587771 43.6346,8.58587771 L43.0846,8.58587771 C42.9636,8.58587771 42.8756,8.48687771 42.8756,8.36587771 L42.8756,8.15687771 C42.2706,8.49787771 41.7756,8.66287771 41.1266,8.66287771 C39.8066,8.66287771 39.2126,7.83787771 39.2126,6.37487771 L39.2126,2.75587771 C39.2126,2.63487771 39.3116,2.53587771 39.4326,2.53587771 L39.9606,2.53587771 C40.0816,2.53587771 40.1806,2.63487771 40.1806,2.75587771 L40.1806,6.37487771 C40.1806,7.48587771 40.5546,7.82687771 41.3906,7.82687771 C41.8526,7.82687771 42.3696,7.65087771 42.8756,7.39787771 L42.8756,2.75587771 C42.8756,2.64587771 42.9746,2.53587771 43.0956,2.53587771 L43.6346,2.53587771 C43.7446,2.53587771 43.8436,2.63487771 43.8436,2.75587771 L43.8436,8.36587771 Z M46.4306,8.36587771 C46.4306,8.47587771 46.3536,8.58587771 46.2326,8.58587771 L45.6606,8.58587771 C45.5506,8.58587771 45.4626,8.48687771 45.4626,8.36587771 L45.4626,0.522877708 C45.4626,0.412877708 45.5396,0.313877708 45.6606,0.313877708 L46.2326,0.313877708 C46.3426,0.313877708 46.4306,0.401877708 46.4306,0.522877708 L46.4306,8.36587771 Z M50.5059,5.58287771 C50.5059,5.69287771 50.4179,5.76987771 50.2969,5.76987771 L48.1079,5.76987771 C47.9869,5.76987771 47.8989,5.70387771 47.8989,5.58287771 L47.8989,5.15387771 C47.8989,5.04387771 47.9869,4.95587771 48.1079,4.95587771 L50.2969,4.95587771 C50.4179,4.95587771 50.5059,5.03287771 50.5059,5.15387771 L50.5059,5.58287771 Z M56.8472,8.29987771 C56.8472,8.43187771 56.7482,8.49787771 56.6272,8.51987771 C56.1652,8.60787771 55.7362,8.66287771 54.8012,8.66287771 C53.4482,8.66287771 51.8972,7.93687771 51.8972,5.26387771 L51.8972,3.73487771 C51.8972,1.03987771 53.4482,0.335877708 54.8012,0.335877708 C55.4942,0.335877708 56.1652,0.434877708 56.6492,0.511877708 C56.7482,0.522877708 56.8252,0.555877708 56.8252,0.654877708 L56.8252,1.21587771 C56.8252,1.28187771 56.8032,1.33687771 56.6932,1.33687771 L56.6602,1.33687771 C56.2642,1.30387771 55.4502,1.23787771 54.8122,1.23787771 C53.7342,1.23787771 52.8982,1.86487771 52.8982,3.73487771 L52.8982,5.26387771 C52.8982,7.11187771 53.7342,7.76087771 54.8122,7.76087771 C55.4392,7.76087771 56.2312,7.70587771 56.6272,7.67287771 L56.6712,7.67287771 C56.7922,7.67287771 56.8472,7.72787771 56.8472,7.84887771 L56.8472,8.29987771 Z M59.124,8.36587771 C59.124,8.47587771 59.047,8.58587771 58.926,8.58587771 L58.354,8.58587771 C58.244,8.58587771 58.156,8.48687771 58.156,8.36587771 L58.156,0.522877708 C58.156,0.412877708 58.233,0.313877708 58.354,0.313877708 L58.926,0.313877708 C59.036,0.313877708 59.124,0.401877708 59.124,0.522877708 L59.124,8.36587771 Z M65.4301,5.97887771 C65.4301,7.59587771 64.5941,8.66287771 62.9771,8.66287771 C61.3601,8.66287771 60.5351,7.59587771 60.5351,5.97887771 L60.5351,5.14287771 C60.5351,3.52587771 61.3601,2.45887771 62.9771,2.45887771 C64.5941,2.45887771 65.4301,3.52587771 65.4301,5.14287771 L65.4301,5.97887771 Z M64.4621,5.97887771 L64.4621,5.14287771 C64.4621,4.02087771 64.0111,3.30587771 62.9771,3.30587771 C61.9541,3.30587771 61.5031,4.00987771 61.5031,5.14287771 L61.5031,5.97887771 C61.5031,7.10087771 61.9431,7.81587771 62.9771,7.81587771 C64.0001,7.81587771 64.4621,7.11187771 64.4621,5.97887771 Z M71.4139,8.36587771 C71.4139,8.48687771 71.3259,8.58587771 71.2049,8.58587771 L70.6549,8.58587771 C70.5339,8.58587771 70.4459,8.48687771 70.4459,8.36587771 L70.4459,8.15687771 C69.8409,8.49787771 69.3459,8.66287771 68.6969,8.66287771 C67.3769,8.66287771 66.7829,7.83787771 66.7829,6.37487771 L66.7829,2.75587771 C66.7829,2.63487771 66.8819,2.53587771 67.0029,2.53587771 L67.5309,2.53587771 C67.6519,2.53587771 67.7509,2.63487771 67.7509,2.75587771 L67.7509,6.37487771 C67.7509,7.48587771 68.1249,7.82687771 68.9609,7.82687771 C69.4229,7.82687771 69.9399,7.65087771 70.4459,7.39787771 L70.4459,2.75587771 C70.4459,2.64587771 70.5449,2.53587771 70.6659,2.53587771 L71.2049,2.53587771 C71.3149,2.53587771 71.4139,2.63487771 71.4139,2.75587771 L71.4139,8.36587771 Z M77.4483,8.22287771 C77.4483,8.36587771 77.4153,8.44287771 77.2173,8.47587771 C76.5353,8.60787771 75.8643,8.66287771 75.1933,8.66287771 C73.5543,8.66287771 72.7953,7.59587771 72.7953,5.94587771 L72.7953,5.15387771 C72.7953,3.42687771 73.5873,2.45887771 75.1933,2.45887771 C75.5343,2.45887771 76.0513,2.49187771 76.4803,2.56887771 L76.4803,0.522877708 C76.4803,0.412877708 76.5683,0.313877708 76.6893,0.313877708 L77.2503,0.313877708 C77.3603,0.313877708 77.4483,0.401877708 77.4483,0.522877708 L77.4483,8.22287771 Z M76.4803,7.74987771 L76.4803,3.38287771 C76.1173,3.31687771 75.5453,3.30587771 75.1933,3.30587771 C74.1153,3.30587771 73.7633,3.97687771 73.7633,5.15387771 L73.7633,5.94587771 C73.7633,7.14487771 74.1043,7.81587771 75.1933,7.81587771 C75.5673,7.81587771 76.1063,7.78287771 76.4803,7.74987771 Z" id="Schul-Cloud" fill="url(#linearGradient-4)"></path>
        </g>
    </g>
</svg>